<svg width="25" height="24" viewBox="0 0 25 24" fill="none" xmlns="http://www.w3.org/2000/svg">
<path d="M22.8881 16.9201V19.9201C22.8892 20.1986 22.8322 20.4743 22.7206 20.7294C22.6091 20.9846 22.4454 21.2137 22.2402 21.402C22.035 21.5902 21.7927 21.7336 21.5289 21.8228C21.265 21.912 20.9855 21.9452 20.7081 21.9201C17.631 21.5857 14.6751 20.5342 12.0781 18.8501C9.66194 17.3148 7.61345 15.2663 6.07812 12.8501C4.38809 10.2413 3.33636 7.27109 3.00812 4.1801C2.98313 3.90356 3.01599 3.62486 3.10462 3.36172C3.19324 3.09859 3.33569 2.85679 3.52288 2.65172C3.71008 2.44665 3.93792 2.28281 4.19191 2.17062C4.44589 2.05843 4.72046 2.00036 4.99812 2.0001H7.99812C8.48342 1.99532 8.95391 2.16718 9.32188 2.48363C9.68985 2.80008 9.93019 3.23954 9.99812 3.7201C10.1247 4.68016 10.3596 5.62282 10.6981 6.5301C10.8327 6.88802 10.8618 7.27701 10.782 7.65098C10.7023 8.02494 10.517 8.36821 10.2481 8.6401L8.97812 9.9101C10.4017 12.4136 12.4746 14.4865 14.9781 15.9101L16.2481 14.6401C16.52 14.3712 16.8633 14.1859 17.2372 14.1062C17.6112 14.0264 18.0002 14.0556 18.3581 14.1901C19.2654 14.5286 20.2081 14.7635 21.1681 14.8901C21.6539 14.9586 22.0975 15.2033 22.4146 15.5776C22.7318 15.9519 22.9003 16.4297 22.8881 16.9201Z" stroke="#D8AE5E" stroke-width="2" stroke-linecap="round" stroke-linejoin="round"/>
<path d="M14.55 2C16.5883 2.21477 18.4922 3.1188 19.9469 4.56258C21.4016 6.00636 22.3199 7.90341 22.55 9.94" stroke="#D8AE5E" stroke-width="2" stroke-linecap="round" stroke-linejoin="round"/>
<path d="M14.55 6C15.5335 6.19394 16.436 6.67903 17.1404 7.39231C17.8447 8.10559 18.3184 9.01413 18.5 10" stroke="#D8AE5E" stroke-width="2" stroke-linecap="round" stroke-linejoin="round"/>
</svg>
